HIERARCHY
ROOT Hips
{
	OFFSET 0.000000 71.427986 0.000000
	CHANNELS 6 Xposition Yposition Zposition Xrotation Yrotation Zrotation
	JOINT Pelvis
	{
		OFFSET 0.000000 0.000000 0.000000
		CHANNELS 3 Xrotation Yrotation Zrotation
		JOINT LeftUpLeg
		{
			OFFSET 6.797100 -2.508499 -1.318700
			CHANNELS 3 Xrotation Yrotation Zrotation
			JOINT LeftLeg
			{
				OFFSET 0.069008 -29.241863 0.690200
				CHANNELS 3 Xrotation Yrotation Zrotation
				JOINT LeftFoot
				{
					OFFSET -0.069008 -29.568123 -0.266800
					CHANNELS 3 Xrotation Yrotation Zrotation
					JOINT LeftToeBase
					{
						OFFSET 3.145500 -8.631000 16.059900
						CHANNELS 3 Xrotation Yrotation Zrotation
						End Site
						{
							OFFSET 0.000000 18.501587 0.000000
						}
					}
				}
			}
			JOINT Left_ShortSleeve
			{
				OFFSET 0.265923 -10.480953 1.153800
				CHANNELS 3 Xrotation Yrotation Zrotation
				End Site
				{
					OFFSET 1.725763 19.823879 0.000000
				}
			}
		}
		JOINT RightUpLeg
		{
			OFFSET -6.797100 -2.508499 -1.318700
			CHANNELS 3 Xrotation Yrotation Zrotation
			JOINT RightLeg
			{
				OFFSET -0.082453 -29.241932 0.688000
				CHANNELS 3 Xrotation Yrotation Zrotation
				JOINT RightFoot
				{
					OFFSET 0.082453 -29.568058 -0.264600
					CHANNELS 3 Xrotation Yrotation Zrotation
					JOINT RightToeBase
					{
						OFFSET -3.115300 -8.682800 16.113400
						CHANNELS 3 Xrotation Yrotation Zrotation
						End Site
						{
							OFFSET 0.000000 18.567114 0.000000
						}
					}
				}
			}
			JOINT Right_ShortSleeve
			{
				OFFSET -0.265923 -10.480953 1.153800
				CHANNELS 3 Xrotation Yrotation Zrotation
				End Site
				{
					OFFSET -1.725766 19.823910 0.000000
				}
			}
		}
	}
	JOINT Spine
	{
		OFFSET 0.000000 13.368103 0.470500
		CHANNELS 3 Xrotation Yrotation Zrotation
		JOINT Spine1
		{
			OFFSET 0.147000 13.837402 0.538800
			CHANNELS 3 Xrotation Yrotation Zrotation
			JOINT Spine2
			{
				OFFSET 0.168000 16.242897 -1.435500
				CHANNELS 3 Xrotation Yrotation Zrotation
				JOINT Neck
				{
					OFFSET 0.217200 18.631500 -1.679100
					CHANNELS 3 Xrotation Yrotation Zrotation
					JOINT Head
					{
						OFFSET 0.000000 6.599396 1.385900
						CHANNELS 3 Xrotation Yrotation Zrotation
						JOINT Hat
						{
							OFFSET -0.532200 27.220596 -10.096100
							CHANNELS 3 Xrotation Yrotation Zrotation
							End Site
							{
								OFFSET 0.000000 22.029861 0.000000
							}
						}
						JOINT HairD
						{
							OFFSET -10.777400 17.437393 -1.325900
							CHANNELS 3 Xrotation Yrotation Zrotation
							JOINT HairD1
							{
								OFFSET -3.290299 -11.051193 1.062200
								CHANNELS 3 Xrotation Yrotation Zrotation
								End Site
								{
									OFFSET 0.000000 11.579437 0.000000
								}
							}
						}
						JOINT HairB
						{
							OFFSET -10.777400 17.437393 1.467900
							CHANNELS 3 Xrotation Yrotation Zrotation
							JOINT HairB1
							{
								OFFSET -1.561200 -12.956299 3.590200
								CHANNELS 3 Xrotation Yrotation Zrotation
								End Site
								{
									OFFSET 0.000000 13.534866 0.000000
								}
							}
						}
						JOINT HairA
						{
							OFFSET 9.713100 17.437393 1.467900
							CHANNELS 3 Xrotation Yrotation Zrotation
							JOINT HairA1
							{
								OFFSET 1.561200 -12.956299 3.590200
								CHANNELS 3 Xrotation Yrotation Zrotation
								End Site
								{
									OFFSET 0.000000 13.534866 0.000000
								}
							}
						}
						JOINT HairC
						{
							OFFSET 9.713100 17.437393 -1.325900
							CHANNELS 3 Xrotation Yrotation Zrotation
							JOINT HairC1
							{
								OFFSET 3.290300 -11.051193 1.062200
								CHANNELS 3 Xrotation Yrotation Zrotation
								End Site
								{
									OFFSET 0.000000 11.579437 0.000000
								}
							}
						}
					}
				}
				JOINT LeftShoulder
				{
					OFFSET 5.101800 15.108002 -2.763700
					CHANNELS 3 Xrotation Yrotation Zrotation
					JOINT LeftArm
					{
						OFFSET 9.825497 2.506317 -1.597400
						CHANNELS 3 Xrotation Yrotation Zrotation
						JOINT LeftForeArm
						{
							OFFSET 21.966244 0.000000 0.000000
							CHANNELS 3 Xrotation Yrotation Zrotation
							JOINT LeftHand
							{
								OFFSET 33.879036 0.000000 0.000000
								CHANNELS 3 Xrotation Yrotation Zrotation
								JOINT LeftHandThumb1
								{
									OFFSET 6.715286 -2.359680 3.363841
									CHANNELS 3 Xrotation Yrotation Zrotation
									JOINT LeftHandThumb2
									{
										OFFSET 2.507072 -1.447464 1.447461
										CHANNELS 3 Xrotation Yrotation Zrotation
										JOINT LeftHandThumb3
										{
											OFFSET 2.898338 -1.673355 1.673357
											CHANNELS 3 Xrotation Yrotation Zrotation
											End Site
											{
												OFFSET -0.295959 3.727692 -0.131651
											}
										}
									}
								}
								JOINT LeftHandIndex1
								{
									OFFSET 14.190811 -0.254547 3.840278
									CHANNELS 3 Xrotation Yrotation Zrotation
									JOINT LeftHandIndex2
									{
										OFFSET 3.551727 0.000000 -0.000000
										CHANNELS 3 Xrotation Yrotation Zrotation
										JOINT LeftHandIndex3
										{
											OFFSET 2.894196 0.000000 0.000000
											CHANNELS 3 Xrotation Yrotation Zrotation
											End Site
											{
												OFFSET -1.000603 2.690872 0.366626
											}
										}
									}
								}
								JOINT LeftHandMiddle1
								{
									OFFSET 13.776489 0.000000 0.000000
									CHANNELS 3 Xrotation Yrotation Zrotation
									JOINT LeftHandMiddle2
									{
										OFFSET 3.438232 0.000000 0.000000
										CHANNELS 3 Xrotation Yrotation Zrotation
										JOINT LeftHandMiddle3
										{
											OFFSET 3.691551 0.000000 0.000000
											CHANNELS 3 Xrotation Yrotation Zrotation
											End Site
											{
												OFFSET -1.082298 3.499527 0.457670
											}
										}
									}
								}
								JOINT LeftHandRing1
								{
									OFFSET 13.966164 -0.268127 -3.067488
									CHANNELS 3 Xrotation Yrotation Zrotation
									JOINT LeftHandRing2
									{
										OFFSET 3.162567 0.000000 0.000000
										CHANNELS 3 Xrotation Yrotation Zrotation
										JOINT LeftHandRing3
										{
											OFFSET 3.324348 0.000000 0.000000
											CHANNELS 3 Xrotation Yrotation Zrotation
											End Site
											{
												OFFSET -0.861900 3.184998 0.405154
											}
										}
									}
								}
								JOINT LeftHandPinky1
								{
									OFFSET 13.131393 -0.168503 -5.746925
									CHANNELS 3 Xrotation Yrotation Zrotation
									JOINT LeftHandPinky2
									{
										OFFSET 2.849182 0.000000 0.000000
										CHANNELS 3 Xrotation Yrotation Zrotation
										JOINT LeftHandPinky3
										{
											OFFSET 2.805038 0.000000 0.000000
											CHANNELS 3 Xrotation Yrotation Zrotation
											End Site
											{
												OFFSET -0.882500 2.642609 0.325652
											}
										}
									}
								}
							}
							JOINT Left_Sleeve
							{
								OFFSET 6.592125 -0.646545 0.805568
								CHANNELS 3 Xrotation Yrotation Zrotation
								End Site
								{
									OFFSET -0.000179 20.275787 -0.000000
								}
							}
						}
					}
				}
				JOINT RightShoulder
				{
					OFFSET -5.731700 15.108002 -2.763700
					CHANNELS 3 Xrotation Yrotation Zrotation
					JOINT RightArm
					{
						OFFSET -9.825497 2.506317 -1.597400
						CHANNELS 3 Xrotation Yrotation Zrotation
						JOINT RightForeArm
						{
							OFFSET -21.966242 0.000000 0.000000
							CHANNELS 3 Xrotation Yrotation Zrotation
							JOINT RightHand
							{
								OFFSET -33.879032 0.000000 0.000000
								CHANNELS 3 Xrotation Yrotation Zrotation
								JOINT RightHandThumb1
								{
									OFFSET -6.715286 -2.359680 3.363841
									CHANNELS 3 Xrotation Yrotation Zrotation
									JOINT RightHandThumb2
									{
										OFFSET -2.507072 -1.447464 1.447461
										CHANNELS 3 Xrotation Yrotation Zrotation
										JOINT RightHandThumb3
										{
											OFFSET -2.898338 -1.673355 1.673357
											CHANNELS 3 Xrotation Yrotation Zrotation
											End Site
											{
												OFFSET 0.295959 3.727692 -0.131651
											}
										}
									}
								}
								JOINT RightHandIndex1
								{
									OFFSET -14.190811 -0.254547 3.840278
									CHANNELS 3 Xrotation Yrotation Zrotation
									JOINT RightHandIndex2
									{
										OFFSET -3.551727 0.000000 -0.000000
										CHANNELS 3 Xrotation Yrotation Zrotation
										JOINT RightHandIndex3
										{
											OFFSET -2.894196 0.000000 0.000000
											CHANNELS 3 Xrotation Yrotation Zrotation
											End Site
											{
												OFFSET 1.000603 2.690872 0.366626
											}
										}
									}
								}
								JOINT RightHandMiddle1
								{
									OFFSET -13.776489 0.000000 0.000000
									CHANNELS 3 Xrotation Yrotation Zrotation
									JOINT RightHandMiddle2
									{
										OFFSET -3.438232 0.000000 0.000000
										CHANNELS 3 Xrotation Yrotation Zrotation
										JOINT RightHandMiddle3
										{
											OFFSET -3.691551 0.000000 0.000000
											CHANNELS 3 Xrotation Yrotation Zrotation
											End Site
											{
												OFFSET 1.082298 3.499527 0.457670
											}
										}
									}
								}
								JOINT RightHandRing1
								{
									OFFSET -13.966164 -0.268127 -3.067488
									CHANNELS 3 Xrotation Yrotation Zrotation
									JOINT RightHandRing2
									{
										OFFSET -3.162567 0.000000 0.000000
										CHANNELS 3 Xrotation Yrotation Zrotation
										JOINT RightHandRing3
										{
											OFFSET -3.324348 0.000000 0.000000
											CHANNELS 3 Xrotation Yrotation Zrotation
											End Site
											{
												OFFSET 0.861900 3.184998 0.405154
											}
										}
									}
								}
								JOINT RightHandPinky1
								{
									OFFSET -13.131393 -0.168503 -5.746925
									CHANNELS 3 Xrotation Yrotation Zrotation
									JOINT RightHandPinky2
									{
										OFFSET -2.849182 0.000000 0.000000
										CHANNELS 3 Xrotation Yrotation Zrotation
										JOINT RightHandPinky3
										{
											OFFSET -2.805038 0.000000 0.000000
											CHANNELS 3 Xrotation Yrotation Zrotation
											End Site
											{
												OFFSET 0.882500 2.642609 0.325652
											}
										}
									}
								}
							}
							JOINT Right_Sleeve
							{
								OFFSET -6.592125 -0.646545 0.805568
								CHANNELS 3 Xrotation Yrotation Zrotation
								End Site
								{
									OFFSET 0.000179 20.275787 -0.000000
								}
							}
						}
					}
				}
				JOINT Bind_Right_JacketString
				{
					OFFSET -3.534800 11.969597 7.200700
					CHANNELS 3 Xrotation Yrotation Zrotation
					JOINT Bind_Right_JacketString1
					{
						OFFSET -0.319900 -6.102600 2.794100
						CHANNELS 3 Xrotation Yrotation Zrotation
						End Site
						{
							OFFSET 0.000000 6.719452 0.000000
						}
					}
				}
				JOINT Bind_Left_JacketString
				{
					OFFSET 2.904800 11.969597 7.200700
					CHANNELS 3 Xrotation Yrotation Zrotation
					JOINT Bind_Left_JacketString1
					{
						OFFSET 0.364800 -5.904503 3.186800
						CHANNELS 3 Xrotation Yrotation Zrotation
						End Site
						{
							OFFSET 0.000000 6.719513 0.000000
						}
					}
				}
				JOINT HairE
				{
					OFFSET 5.915200 17.612701 -11.592200
					CHANNELS 3 Xrotation Yrotation Zrotation
					JOINT HairE1
					{
						OFFSET 0.289200 -7.171898 -1.284500
						CHANNELS 3 Xrotation Yrotation Zrotation
						End Site
						{
							OFFSET 0.000000 7.291756 0.000000
						}
					}
				}
				JOINT HairF
				{
					OFFSET -0.864800 17.612701 -11.592200
					CHANNELS 3 Xrotation Yrotation Zrotation
					JOINT HairF1
					{
						OFFSET 0.000000 -14.087097 -2.127501
						CHANNELS 3 Xrotation Yrotation Zrotation
						End Site
						{
							OFFSET 0.000000 14.246841 0.000000
						}
					}
				}
				JOINT HairG
				{
					OFFSET -8.087700 17.612701 -11.592200
					CHANNELS 3 Xrotation Yrotation Zrotation
					JOINT HairG1
					{
						OFFSET -0.293600 -6.081398 -0.910100
						CHANNELS 3 Xrotation Yrotation Zrotation
						End Site
						{
							OFFSET 0.000000 6.156120 0.000000
						}
					}
				}
			}
		}
	}
	JOINT Pouch
	{
		OFFSET 0.000000 4.394501 10.847300
		CHANNELS 3 Xrotation Yrotation Zrotation
		End Site
		{
			OFFSET 0.000000 21.880577 0.000000
		}
	}
	JOINT Bag
	{
		OFFSET -13.229000 4.813004 -0.593300
		CHANNELS 3 Xrotation Yrotation Zrotation
		End Site
		{
			OFFSET 0.000000 21.880577 0.000000
		}
	}
	JOINT OccupyGuyFacialAnim_Joint
	{
		OFFSET 1.000000 -70.206398 -1.655000
		CHANNELS 3 Xrotation Yrotation Zrotation
		End Site
		{
			OFFSET 0.000000 21.880577 0.000000
		}
	}
}
MOTION
Frames: 5
Frame Time: 0.033333
3.143550 62.812393 -21.760952 10.534027 -34.613073 12.012988 -0.000000 -0.000002 -0.000000 -46.407673 14.047089 6.891928 52.023027 4.027758 1.862175 -12.633251 12.248320 -5.409381 -0.000000 -0.000000 -0.000000 0.000002 -0.000000 -0.000002 -20.064369 11.524571 -7.622225 55.730826 8.135245 -9.969231 -42.038981 -6.653199 5.649359 0.000000 0.000001 -0.000000 -0.000002 -0.000000 -0.000000 19.862274 -7.394000 -5.582047 4.279073 -1.703772 -2.009094 4.336566 -1.627824 -1.974285 2.240667 1.641588 1.711181 -27.040017 18.626930 2.497604 0.000001 -0.000000 -0.000000 0.000001 -0.000000 -0.000000 0.000001 -0.000000 -0.000000 0.000001 -0.000000 -0.000000 0.000001 -0.000000 -0.000000 0.000001 -0.000000 -0.000000 0.000001 -0.000000 -0.000000 0.000001 -0.000000 -0.000000 0.000001 -0.000000 -0.000000 9.846754 -14.739400 -10.495275 -31.820366 6.668640 -49.542272 -0.000731 -84.396187 -0.000732 -131.412812 10.373002 20.092528 22.869890 -27.141247 23.067511 -18.755187 11.865899 -5.299194 0.000002 -0.000000 0.000002 2.817409 7.475640 -71.032916 2.284147 4.641103 -52.390023 0.000001 0.000000 0.000002 2.614569 7.392334 -70.500926 3.021111 5.123240 -61.032774 0.000004 -0.000001 0.000001 1.239314 6.938211 -71.026270 3.334037 5.283726 -64.482238 0.000001 0.000001 -0.000002 -0.451794 7.241889 -80.618943 1.697286 4.124438 -44.721814 0.000003 -0.000005 0.000002 0.000000 0.000000 0.000001 -0.251457 18.656662 18.755238 -1.856481 35.146559 32.056776 0.000007 104.770929 -0.000027 -28.318833 -33.940228 6.700536 52.323627 29.641833 -26.183146 42.378329 -24.929968 37.205154 0.000001 -0.000003 0.000004 -2.012461 2.205767 21.312833 2.896821 -4.312318 67.768987 0.000002 -0.000002 -0.000000 13.456659 -8.790203 78.781888 5.608644 -4.559135 101.801449 -0.000000 0.000001 -0.000002 8.262307 -7.055090 88.116038 5.520463 -4.576636 100.694255 -0.000002 0.000002 -0.000004 4.707877 -6.937686 92.892069 2.523286 -4.140502 62.703630 -0.000000 0.000002 0.000001 0.000002 -0.000000 0.000002 -0.000000 0.000000 -0.000002 0.000003 -0.000000 0.000000 -0.000000 0.000000 -0.000001 -0.000000 0.000000 -0.000001 -0.000000 0.000000 -0.000002 0.000003 -0.000000 0.000000 -0.000000 0.000000 -0.000001 -0.000000 0.000000 -0.000001 -0.000000 0.000000 -0.000002 0.000003 -0.000000 0.000000 -0.000000 -0.000002 -0.000000 -0.000000 -0.000002 -0.000000 -0.000000 -0.000002 -0.000000 
2.827778 62.710487 -22.942984 10.359521 -34.137248 12.069918 0.000000 -0.000001 -0.000000 -46.956041 13.873942 7.407566 51.096932 3.926481 2.023394 -10.898866 11.666629 -6.057768 0.000000 0.000000 0.000000 0.000004 -0.000002 -0.000002 -21.173255 11.364982 -6.756511 56.697885 8.314355 -9.946638 -42.417558 -6.572656 4.626022 -0.000000 0.000002 -0.000000 0.000000 -0.000002 -0.000001 19.822133 -7.674576 -5.684062 4.275736 -1.776136 -2.037808 4.333458 -1.698746 -2.001697 2.227655 1.641959 1.709406 -27.025962 18.613534 2.509734 0.000000 -0.000001 0.000000 0.000000 -0.000001 0.000000 0.000000 -0.000001 0.000000 0.000000 -0.000001 0.000000 0.000000 -0.000001 0.000000 0.000000 -0.000001 0.000000 0.000000 -0.000001 0.000000 0.000000 -0.000001 0.000000 0.000000 -0.000001 0.000000 9.852909 -14.729996 -10.492126 -31.821500 6.644648 -49.184284 0.000158 -84.337250 0.000150 -131.680446 10.282804 20.072119 22.797679 -27.102643 22.912143 -18.755187 11.865897 -5.299191 0.000003 -0.000000 -0.000001 2.828324 7.482187 -71.154855 2.284149 4.641105 -52.390020 0.000001 -0.000000 -0.000000 2.625192 7.399222 -70.621574 3.021114 5.123240 -61.032767 0.000004 0.000000 0.000001 1.249041 6.948086 -71.147854 3.334039 5.283731 -64.482231 0.000001 0.000000 -0.000002 -0.441390 7.255411 -80.741066 1.697284 4.124441 -44.721818 -0.000000 -0.000001 0.000001 -0.000001 -0.000002 -0.000001 -0.281190 18.761078 18.713006 -2.144173 35.316238 32.439072 0.000065 104.483945 -0.000056 -28.181750 -33.958891 6.858161 52.323634 29.641836 -26.183149 42.378339 -24.929967 37.205164 -0.000001 0.000000 -0.000001 -2.012464 2.205764 21.312828 2.896829 -4.312314 67.768980 -0.000001 -0.000001 0.000004 13.456659 -8.790204 78.781888 5.608645 -4.559130 101.801442 0.000001 0.000003 0.000001 8.262308 -7.055088 88.116031 5.520463 -4.576637 100.694262 -0.000000 -0.000002 -0.000003 4.707878 -6.937681 92.892062 2.523286 -4.140505 62.703630 -0.000001 0.000004 -0.000001 -0.000000 0.000000 0.000001 0.000002 -0.000000 0.000001 -0.000000 0.000002 0.000001 0.000002 -0.000000 0.000002 0.000002 -0.000000 0.000002 0.000002 -0.000000 0.000001 -0.000000 0.000002 0.000001 0.000002 -0.000000 0.000002 0.000002 -0.000000 0.000002 0.000002 -0.000000 0.000001 -0.000000 0.000002 0.000001 0.000000 -0.000001 -0.000000 0.000000 -0.000001 -0.000000 0.000000 -0.000001 -0.000000 
2.514813 62.615158 -24.111507 10.173580 -33.660368 12.119122 0.000000 -0.000001 0.000001 -47.428171 13.763361 7.913686 50.039557 3.950842 2.147450 -9.134947 10.905517 -6.601688 -0.000000 -0.000000 -0.000000 -0.000002 -0.000001 -0.000000 -22.470868 11.246685 -5.805852 57.966784 8.471665 -9.937022 -42.552622 -6.734813 3.571957 0.000000 -0.000002 0.000000 0.000001 -0.000001 -0.000001 19.781152 -7.962419 -5.780485 4.272285 -1.850286 -2.065741 4.330249 -1.771422 -2.028422 2.214728 1.642231 1.707961 -27.012319 18.600280 2.518583 0.000001 -0.000003 0.000001 0.000001 -0.000003 0.000001 0.000001 -0.000003 0.000000 0.000001 -0.000003 0.000001 0.000001 -0.000003 0.000001 0.000001 -0.000003 0.000001 0.000001 -0.000003 0.000001 0.000001 -0.000003 0.000001 0.000001 -0.000003 0.000001 9.862799 -14.714922 -10.485722 -31.833090 6.636190 -48.873627 -0.000100 -84.270478 -0.000076 -131.909545 10.169618 20.048984 22.727594 -27.055291 22.759449 -18.755184 11.865894 -5.299187 0.000000 0.000001 -0.000002 2.838847 7.488471 -71.272307 2.284152 4.641101 -52.390030 0.000002 0.000001 0.000002 2.635406 7.405840 -70.737578 3.021112 5.123238 -61.032767 0.000001 0.000001 0.000001 1.258432 6.957567 -71.264835 3.334039 5.283728 -64.482238 0.000003 -0.000003 -0.000000 -0.431337 7.268412 -80.858655 1.697286 4.124435 -44.721818 -0.000006 -0.000003 -0.000001 0.000000 0.000002 -0.000001 -0.316750 18.877630 18.673809 -2.435557 35.468950 32.781667 -0.000041 104.161826 0.000036 -28.067013 -33.950326 7.078355 52.323627 29.641839 -26.183146 42.378339 -24.929970 37.205161 0.000001 -0.000001 0.000002 -2.012464 2.205764 21.312832 2.896821 -4.312316 67.768980 0.000003 -0.000000 0.000002 13.456657 -8.790204 78.781888 5.608651 -4.559138 101.801449 -0.000000 0.000003 -0.000000 8.262307 -7.055089 88.116038 5.520466 -4.576639 100.694255 -0.000002 -0.000002 -0.000003 4.707878 -6.937679 92.892069 2.523284 -4.140501 62.703623 -0.000001 -0.000000 -0.000001 0.000002 -0.000000 0.000000 -0.000002 0.000001 -0.000000 0.000001 0.000001 -0.000004 -0.000002 0.000001 -0.000000 -0.000002 0.000001 -0.000000 -0.000002 0.000001 -0.000000 0.000001 0.000001 -0.000003 -0.000002 0.000001 -0.000000 -0.000002 0.000001 -0.000000 -0.000002 0.000001 -0.000000 0.000001 0.000001 -0.000003 0.000000 -0.000001 0.000001 0.000000 -0.000001 0.000001 0.000000 -0.000001 0.000001 
2.201934 62.527733 -25.266584 9.979351 -33.183825 12.163139 -0.000000 0.000000 0.000000 -47.783293 13.645660 8.367327 48.824487 3.889593 2.235367 -7.361563 10.224616 -7.037583 -0.000000 -0.000000 -0.000000 -0.000001 0.000000 -0.000000 -23.992069 11.107490 -4.766200 59.523289 8.355633 -9.937650 -42.372427 -7.032549 2.691937 0.000000 -0.000000 0.000000 0.000002 -0.000001 -0.000001 19.740087 -8.252111 -5.870612 4.268794 -1.924726 -2.092448 4.326918 -1.844430 -2.053977 2.202033 1.642395 1.706867 -26.998916 18.587508 2.523859 0.000001 0.000002 -0.000000 0.000001 0.000002 -0.000000 0.000001 0.000002 -0.000001 0.000001 0.000002 -0.000000 0.000001 0.000002 -0.000001 0.000001 0.000002 -0.000000 0.000001 0.000002 -0.000001 0.000001 0.000002 -0.000000 0.000001 0.000002 -0.000000 9.874839 -14.695852 -10.478856 -31.849493 6.630432 -48.547076 -0.000585 -84.193263 -0.000524 -132.163163 10.040808 20.029957 22.661572 -27.004785 22.614533 -18.755187 11.865896 -5.299193 -0.000000 -0.000000 0.000001 2.848715 7.494329 -71.382355 2.284150 4.641103 -52.390023 -0.000001 0.000001 -0.000000 2.644981 7.412010 -70.846158 3.021117 5.123236 -61.032767 0.000003 -0.000002 0.000000 1.267234 6.966415 -71.374439 3.334039 5.283730 -64.482238 0.000001 0.000001 0.000000 -0.421874 7.280563 -80.968819 1.697284 4.124437 -44.721821 -0.000001 0.000001 -0.000000 -0.000001 0.000000 0.000002 -0.351592 18.981171 18.648578 -2.732446 35.682209 33.073224 0.000081 103.794089 -0.000092 -28.007978 -33.943376 7.299158 52.323627 29.641836 -26.183146 42.378336 -24.929970 37.205157 -0.000001 0.000001 -0.000001 -2.012466 2.205764 21.312830 2.896824 -4.312318 67.768987 -0.000001 0.000002 -0.000001 13.456657 -8.790203 78.781888 5.608653 -4.559137 101.801449 0.000000 -0.000001 0.000001 8.262306 -7.055092 88.116038 5.520465 -4.576635 100.694255 -0.000000 -0.000001 -0.000006 4.707876 -6.937682 92.892069 2.523283 -4.140504 62.703630 -0.000002 -0.000002 -0.000003 0.000002 0.000001 0.000002 0.000003 0.000001 -0.000000 0.000002 0.000003 -0.000001 0.000003 0.000001 -0.000000 0.000003 0.000001 -0.000000 0.000003 0.000001 -0.000000 0.000002 0.000003 -0.000001 0.000003 0.000001 -0.000000 0.000003 0.000001 -0.000000 0.000003 0.000001 -0.000000 0.000002 0.000003 -0.000001 -0.000000 0.000000 0.000000 -0.000000 0.000000 0.000000 -0.000000 0.000000 0.000000 
1.886478 62.449791 -26.407166 9.780064 -32.709667 12.204227 -0.000000 0.000001 -0.000000 -48.012606 13.518602 8.721681 47.415125 3.939263 2.392183 -5.497740 9.494037 -7.550727 -0.000000 -0.000000 -0.000000 0.000002 -0.000000 -0.000000 -25.432792 10.905836 -3.760750 61.022262 8.916896 -9.938123 -42.163072 -7.831705 1.361180 0.000000 0.000000 -0.000000 -0.000001 -0.000000 -0.000000 19.699743 -8.537495 -5.953741 4.265352 -1.998032 -2.117450 4.323581 -1.916247 -2.077917 2.189667 1.642488 1.706117 -26.986515 18.575543 2.528156 0.000001 0.000001 -0.000000 0.000001 0.000001 -0.000000 0.000001 0.000001 -0.000001 0.000001 0.000001 -0.000000 0.000001 -0.000001 0.000000 0.000001 0.000001 -0.000000 0.000001 -0.000001 0.000000 0.000001 0.000001 -0.000000 0.000001 0.000001 -0.000000 9.890306 -14.675642 -10.470356 -31.882299 6.612896 -48.176302 -0.000275 -84.094409 -0.000294 -132.470617 9.909692 20.019734 22.601511 -26.956626 22.482498 -18.755184 11.865895 -5.299189 0.000000 -0.000000 -0.000001 2.857672 7.499632 -71.482137 2.284151 4.641106 -52.390017 -0.000001 -0.000002 0.000001 2.653668 7.417587 -70.944526 3.021113 5.123242 -61.032767 0.000005 0.000001 -0.000001 1.275233 6.974444 -71.473750 3.334033 5.283728 -64.482238 -0.000004 0.000003 0.000000 -0.413313 7.291564 -81.068697 1.697286 4.124434 -44.721818 -0.000002 -0.000001 0.000001 0.000001 0.000001 0.000001 -0.381835 19.054162 18.645904 -3.039512 35.996562 33.305102 0.000169 103.378683 -0.000163 -28.021360 -33.955736 7.481617 52.323627 29.641836 -26.183143 42.378332 -24.929972 37.205161 0.000001 0.000001 -0.000000 -2.012469 2.205764 21.312830 2.896825 -4.312312 67.768987 -0.000000 0.000001 -0.000003 13.456655 -8.790204 78.781888 5.608644 -4.559133 101.801449 0.000000 0.000001 -0.000002 8.262306 -7.055089 88.116038 5.520468 -4.576639 100.694262 0.000000 0.000002 -0.000001 4.707874 -6.937682 92.892062 2.523287 -4.140504 62.703630 -0.000002 0.000001 -0.000001 0.000001 0.000000 0.000000 -0.000000 0.000004 -0.000002 0.000002 -0.000001 0.000001 -0.000000 0.000004 -0.000003 -0.000000 0.000004 -0.000003 -0.000000 0.000004 -0.000002 0.000002 -0.000001 0.000001 -0.000000 0.000004 -0.000003 -0.000000 0.000004 -0.000003 -0.000000 0.000004 -0.000002 0.000002 -0.000001 0.000001 -0.000000 0.000001 -0.000000 -0.000000 0.000001 -0.000000 -0.000000 0.000001 -0.000000 
